<svg xmlns="http://www.w3.org/2000/svg" xmlns:xlink="http://www.w3.org/1999/xlink" width="646" height="261" overflow="hidden" xml:space="preserve"><g><g><path fill="none" fill-rule="evenodd" stroke="#1F77B4" stroke-linecap="square" stroke-linejoin="round" stroke-miterlimit="10" stroke-opacity="1" stroke-width="3.765" d="M78 91.6716 86.6082 69.5571 95.2164 111.118 103.825 87.8967 112.432 19.2404 121.041 166.789 129.649 226.429 138.257 95.483 146.865 87.8967 155.473 58.9565 164.081 111.118 172.689 69.5571 181.297 58.9565 189.906 237.328 198.513 266 207.122 176.112 215.73 166.789 224.338 221.093 232.946 91.6716 241.554 266 250.162 103.221 258.77 166.789 267.379 242.895 275.986 35.2965 284.595 111.118 293.203 69.5571 301.811 38.5893 310.419 111.118 319.027 166.789 327.635 80.4565 336.243 58.9565 344.851 195.461 353.46 80.4565 362.067 45.2598 370.676 41.9103 379.284 190.533 387.892 111.118 396.5 153.213 405.108 266 413.716 176.112 422.324 248.544 430.933 260.093 439.54 266 448.149 99.333 456.757 87.8967 465.365 242.895 473.973 171.423 482.581 41.9103 491.189 58.9565 499.797 111.118 508.405 48.6389 517.014 41.9103 525.621 80.4565 534.23 237.328 542.838 266 551.446 103.221 560.054 166.789 568.662 171.423 577.27 190.533 585.878 237.328 594.487 111.118 603.095 254.275 611.703 103.221 620.311 95.483 628.919 185.666 637.527 41.9103 646.135 95.483 654.743 248.544 663.351 55.4869 671.959 266 680.568 185.666 689.175 95.483 697.784 48.6389 706.392 171.423 715 13.0001" transform="translate(-73 -9)"/></g></g></svg>